<?xml version="1.0" encoding="utf-8"?>
<!-- Generator: Adobe Illustrator 15.0.0, SVG Export Plug-In . SVG Version: 6.00 Build 0)  -->
<!DOCTYPE svg PUBLIC "-//W3C//DTD SVG 1.1//EN" "http://www.w3.org/Graphics/SVG/1.1/DTD/svg11.dtd">
<svg version="1.1" xmlns="http://www.w3.org/2000/svg" xmlns:xlink="http://www.w3.org/1999/xlink" x="0px" y="0px" width="750px"
	 height="232px" viewBox="0 0 750 232" enable-background="new 0 0 750 232" xml:space="preserve">
<g id="图层_2">
	<g>
		<g>
			<path fill="#4C4949" d="M301.988,172.586c0.684-0.216,1.441,0.571,1.129,1.238c-0.196,0.669-1.188,0.844-1.607,0.291
				C301.05,173.63,301.329,172.719,301.988,172.586"/>
			<path fill="#4C4949" d="M300.485,174.793c0.623-0.247,1.305-0.129,1.957-0.155c0.563,0.009,1.214-0.075,1.677,0.316
				c0.354,0.278,0.367,0.767,0.372,1.178c-0.006,0.903,0.005,1.808-0.004,2.713c0.009,0.201-0.074,0.514-0.326,0.504
				c-0.296,0.075-0.494-0.246-0.483-0.504c-0.005-0.88,0.001-1.757-0.001-2.632c-0.075,0-0.221,0.002-0.295,0.004
				c-0.013,2.515,0.006,5.03-0.01,7.545c0.064,0.602-0.993,0.74-1.043,0.117c-0.023-1.51-0.002-3.024-0.009-4.535h-0.247
				c0,1.318-0.004,2.635,0.002,3.956c0.002,0.284-0.023,0.577-0.132,0.848c-0.343,0.282-0.994,0.14-0.973-0.373
				c-0.021-2.516,0.005-5.031-0.013-7.547h-0.237c-0.014,0.833,0.003,1.669-0.005,2.503c0,0.273-0.135,0.7-0.486,0.619
				c-0.205,0.02-0.338-0.217-0.321-0.4c-0.01-1.058-0.006-2.117-0.002-3.173C299.896,175.374,300.094,174.946,300.485,174.793"/>
		</g>
		<g>
			<path fill="#4C4949" d="M309.768,172.741c0.619-0.132,1.268,0.453,1.135,1.09c-0.056,0.826-1.267,1.073-1.714,0.417
				C308.742,173.718,309.124,172.88,309.768,172.741"/>
			<path fill="#4C4949" d="M308.46,175.244c0.473-0.455,1.178-0.279,1.768-0.315c0.486-0.034,1.074,0.031,1.359,0.484
				c0.35,0.58,0.438,1.271,0.664,1.903c0.135,0.541,0.427,1.079,0.298,1.653c-0.25,0.086-0.563,0.074-0.685-0.201
				c-0.281-0.765-0.475-1.558-0.739-2.328c-0.033-0.131-0.146-0.212-0.237-0.3c0.357,1.532,0.865,3.028,1.277,4.546
				c-0.376,0.001-0.753,0.005-1.128,0c-0.029,1.087,0.011,2.173-0.018,3.257c0.007,0.248-0.155,0.527-0.429,0.517
				c-0.269,0.021-0.468-0.25-0.437-0.501c-0.014-1.093,0.013-2.186-0.009-3.278c-0.066,0.002-0.198,0.005-0.264,0.008
				c-0.022,1.129,0.023,2.259-0.021,3.385c-0.037,0.509-0.8,0.496-0.849-0.001c-0.024-1.129,0.002-2.258-0.012-3.387
				c-0.378,0.004-0.757,0.003-1.135-0.003c0.359-1.493,0.773-2.971,1.126-4.463c-0.043,0.028-0.129,0.083-0.172,0.111
				c-0.279,0.799-0.451,1.637-0.726,2.438c-0.087,0.365-0.74,0.342-0.747-0.056c0.054-0.617,0.312-1.198,0.462-1.798
				C308,176.353,308.054,175.706,308.46,175.244"/>
		</g>
		<line fill="none" stroke="#4C4949" stroke-miterlimit="10" x1="305.862" y1="172.722" x2="305.862" y2="184.097"/>
		<g>
			<g>
				<path fill="#4C4949" d="M106.246,172.586c0.684-0.216,1.441,0.571,1.129,1.238c-0.196,0.669-1.188,0.844-1.607,0.291
					C105.308,173.63,105.587,172.719,106.246,172.586"/>
				<path fill="#4C4949" d="M104.743,174.793c0.623-0.247,1.305-0.129,1.957-0.155c0.563,0.009,1.214-0.075,1.677,0.316
					c0.354,0.278,0.367,0.767,0.372,1.178c-0.006,0.903,0.005,1.808-0.004,2.713c0.009,0.201-0.074,0.514-0.326,0.504
					c-0.296,0.075-0.494-0.246-0.483-0.504c-0.005-0.88,0.001-1.757-0.001-2.632c-0.075,0-0.221,0.002-0.295,0.004
					c-0.013,2.515,0.006,5.03-0.01,7.545c0.064,0.602-0.993,0.74-1.043,0.117c-0.023-1.51-0.002-3.024-0.009-4.535h-0.247
					c0,1.318-0.004,2.635,0.002,3.956c0.002,0.284-0.023,0.577-0.132,0.848c-0.343,0.282-0.994,0.14-0.973-0.373
					c-0.021-2.516,0.005-5.031-0.013-7.547h-0.237c-0.014,0.833,0.003,1.669-0.005,2.503c0,0.273-0.135,0.7-0.486,0.619
					c-0.205,0.02-0.338-0.217-0.321-0.4c-0.01-1.058-0.006-2.117-0.002-3.173C104.154,175.374,104.352,174.946,104.743,174.793"/>
			</g>
			<g>
				<path fill="#4C4949" d="M114.026,172.741c0.619-0.132,1.268,0.453,1.135,1.09c-0.056,0.826-1.267,1.073-1.714,0.417
					C113,173.718,113.382,172.88,114.026,172.741"/>
				<path fill="#4C4949" d="M112.719,175.244c0.473-0.455,1.178-0.279,1.768-0.315c0.486-0.034,1.074,0.031,1.359,0.484
					c0.35,0.58,0.438,1.271,0.664,1.903c0.135,0.541,0.427,1.079,0.298,1.653c-0.25,0.086-0.563,0.074-0.685-0.201
					c-0.281-0.765-0.475-1.558-0.739-2.328c-0.033-0.131-0.146-0.212-0.237-0.3c0.357,1.532,0.865,3.028,1.277,4.546
					c-0.376,0.001-0.753,0.005-1.128,0c-0.029,1.087,0.011,2.173-0.018,3.257c0.007,0.248-0.155,0.527-0.429,0.517
					c-0.269,0.021-0.468-0.25-0.437-0.501c-0.014-1.093,0.013-2.186-0.009-3.278c-0.066,0.002-0.198,0.005-0.264,0.008
					c-0.022,1.129,0.023,2.259-0.021,3.385c-0.037,0.509-0.8,0.496-0.849-0.001c-0.024-1.129,0.002-2.258-0.012-3.387
					c-0.378,0.004-0.757,0.003-1.135-0.003c0.359-1.493,0.773-2.971,1.126-4.463c-0.043,0.028-0.129,0.083-0.172,0.111
					c-0.279,0.799-0.451,1.637-0.726,2.438c-0.087,0.365-0.74,0.342-0.747-0.056c0.054-0.617,0.312-1.198,0.462-1.798
					C112.259,176.353,112.312,175.706,112.719,175.244"/>
			</g>
			<line fill="none" stroke="#4C4949" stroke-miterlimit="10" x1="110.12" y1="172.722" x2="110.12" y2="184.097"/>
		</g>
	</g>
	<g>
		<g>
			<path fill="#4C4949" d="M436.663,172.586c0.685-0.216,1.44,0.571,1.129,1.238c-0.196,0.669-1.188,0.844-1.607,0.291
				C435.725,173.63,436.004,172.719,436.663,172.586"/>
			<path fill="#4C4949" d="M435.16,174.793c0.623-0.247,1.305-0.129,1.957-0.155c0.563,0.009,1.214-0.075,1.678,0.316
				c0.354,0.278,0.366,0.767,0.371,1.178c-0.006,0.903,0.006,1.808-0.004,2.713c0.01,0.201-0.074,0.514-0.325,0.504
				c-0.296,0.075-0.493-0.246-0.483-0.504c-0.005-0.88,0.001-1.757-0.001-2.632c-0.075,0-0.221,0.002-0.295,0.004
				c-0.013,2.515,0.007,5.03-0.01,7.545c0.064,0.602-0.993,0.74-1.043,0.117c-0.022-1.51-0.003-3.024-0.009-4.535h-0.247
				c0.001,1.318-0.004,2.635,0.002,3.956c0.003,0.284-0.023,0.577-0.132,0.848c-0.343,0.282-0.994,0.14-0.973-0.373
				c-0.021-2.516,0.005-5.031-0.014-7.547h-0.236c-0.014,0.833,0.003,1.669-0.005,2.503c0,0.273-0.135,0.7-0.486,0.619
				c-0.204,0.02-0.338-0.217-0.321-0.4c-0.01-1.058-0.006-2.117-0.002-3.173C434.57,175.374,434.77,174.946,435.16,174.793"/>
		</g>
		<g>
			<path fill="#4C4949" d="M444.443,172.741c0.619-0.132,1.268,0.453,1.135,1.09c-0.056,0.826-1.266,1.073-1.714,0.417
				C443.418,173.718,443.799,172.88,444.443,172.741"/>
			<path fill="#4C4949" d="M443.136,175.244c0.474-0.455,1.178-0.279,1.768-0.315c0.486-0.034,1.073,0.031,1.359,0.484
				c0.35,0.58,0.438,1.271,0.663,1.903c0.135,0.541,0.428,1.079,0.299,1.653c-0.251,0.086-0.563,0.074-0.686-0.201
				c-0.281-0.765-0.475-1.558-0.738-2.328c-0.033-0.131-0.146-0.212-0.238-0.3c0.357,1.532,0.865,3.028,1.277,4.546
				c-0.377,0.001-0.753,0.005-1.129,0c-0.029,1.087,0.012,2.173-0.018,3.257c0.008,0.248-0.154,0.527-0.429,0.517
				c-0.269,0.021-0.468-0.25-0.437-0.501c-0.014-1.093,0.013-2.186-0.01-3.278c-0.065,0.002-0.197,0.005-0.264,0.008
				c-0.021,1.129,0.023,2.259-0.021,3.385c-0.037,0.509-0.8,0.496-0.849-0.001c-0.024-1.129,0.002-2.258-0.012-3.387
				c-0.379,0.004-0.758,0.003-1.136-0.003c0.358-1.493,0.773-2.971,1.126-4.463c-0.043,0.028-0.129,0.083-0.172,0.111
				c-0.279,0.799-0.451,1.637-0.726,2.438c-0.087,0.365-0.74,0.342-0.747-0.056c0.055-0.617,0.313-1.198,0.463-1.798
				C442.676,176.353,442.729,175.706,443.136,175.244"/>
		</g>
		<line fill="none" stroke="#4C4949" stroke-miterlimit="10" x1="440.537" y1="172.722" x2="440.537" y2="184.097"/>
	</g>
	<g>
		<g>
			<path fill="#4C4949" d="M106.246,46.918c0.684-0.216,1.441,0.571,1.129,1.238c-0.196,0.669-1.188,0.844-1.607,0.291
				C105.308,47.962,105.587,47.051,106.246,46.918"/>
			<path fill="#4C4949" d="M104.743,49.125c0.623-0.247,1.305-0.129,1.957-0.155c0.563,0.009,1.214-0.075,1.677,0.316
				c0.354,0.278,0.367,0.767,0.372,1.178c-0.006,0.903,0.005,1.808-0.004,2.713c0.009,0.201-0.074,0.514-0.326,0.504
				c-0.296,0.075-0.494-0.246-0.483-0.504c-0.005-0.88,0.001-1.757-0.001-2.632c-0.075,0-0.221,0.002-0.295,0.004
				c-0.013,2.515,0.006,5.03-0.01,7.545c0.064,0.602-0.993,0.74-1.043,0.117c-0.023-1.51-0.002-3.024-0.009-4.535h-0.247
				c0,1.318-0.004,2.635,0.002,3.956c0.002,0.284-0.023,0.577-0.132,0.848c-0.343,0.282-0.994,0.14-0.973-0.373
				c-0.021-2.516,0.005-5.031-0.013-7.547h-0.237c-0.014,0.833,0.003,1.669-0.005,2.503c0,0.273-0.135,0.7-0.486,0.619
				c-0.205,0.02-0.338-0.217-0.321-0.4c-0.01-1.058-0.006-2.117-0.002-3.173C104.154,49.706,104.352,49.278,104.743,49.125"/>
		</g>
		<g>
			<path fill="#4C4949" d="M114.026,47.073c0.619-0.132,1.268,0.453,1.135,1.09c-0.056,0.826-1.267,1.073-1.714,0.417
				C113,48.05,113.382,47.212,114.026,47.073"/>
			<path fill="#4C4949" d="M112.719,49.576c0.473-0.455,1.178-0.279,1.768-0.315c0.486-0.034,1.074,0.031,1.359,0.484
				c0.35,0.58,0.438,1.271,0.664,1.903c0.135,0.541,0.427,1.079,0.298,1.653c-0.25,0.086-0.563,0.074-0.685-0.201
				c-0.281-0.765-0.475-1.558-0.739-2.328c-0.033-0.131-0.146-0.212-0.237-0.3c0.357,1.532,0.865,3.028,1.277,4.546
				c-0.376,0.001-0.753,0.005-1.128,0c-0.029,1.087,0.011,2.173-0.018,3.257c0.007,0.248-0.155,0.527-0.429,0.517
				c-0.269,0.021-0.468-0.25-0.437-0.501c-0.014-1.093,0.013-2.186-0.009-3.278c-0.066,0.002-0.198,0.005-0.264,0.008
				c-0.022,1.129,0.023,2.259-0.021,3.385c-0.037,0.509-0.8,0.496-0.849-0.001c-0.024-1.129,0.002-2.258-0.012-3.387
				c-0.378,0.004-0.757,0.003-1.135-0.003c0.359-1.493,0.773-2.971,1.126-4.463c-0.043,0.028-0.129,0.083-0.172,0.111
				c-0.279,0.799-0.451,1.637-0.726,2.438c-0.087,0.365-0.74,0.342-0.747-0.056c0.054-0.617,0.312-1.198,0.462-1.798
				C112.259,50.685,112.312,50.038,112.719,49.576"/>
		</g>
		<line fill="none" stroke="#4C4949" stroke-miterlimit="10" x1="110.12" y1="47.054" x2="110.12" y2="58.429"/>
	</g>
	<g>
		<g>
			<path fill="#4C4949" d="M633.245,172.586c0.685-0.216,1.44,0.571,1.129,1.238c-0.196,0.669-1.188,0.844-1.607,0.291
				C632.307,173.63,632.586,172.719,633.245,172.586"/>
			<path fill="#4C4949" d="M631.742,174.793c0.623-0.247,1.305-0.129,1.957-0.155c0.563,0.009,1.214-0.075,1.678,0.316
				c0.354,0.278,0.366,0.767,0.371,1.178c-0.006,0.903,0.006,1.808-0.004,2.713c0.01,0.201-0.074,0.514-0.325,0.504
				c-0.296,0.075-0.493-0.246-0.483-0.504c-0.005-0.88,0.001-1.757-0.001-2.632c-0.075,0-0.221,0.002-0.295,0.004
				c-0.013,2.515,0.007,5.03-0.01,7.545c0.064,0.602-0.993,0.74-1.043,0.117c-0.022-1.51-0.003-3.024-0.009-4.535h-0.247
				c0.001,1.318-0.004,2.635,0.002,3.956c0.003,0.284-0.023,0.577-0.132,0.848c-0.343,0.282-0.994,0.14-0.973-0.373
				c-0.021-2.516,0.005-5.031-0.014-7.547h-0.236c-0.014,0.833,0.003,1.669-0.005,2.503c0,0.273-0.135,0.7-0.486,0.619
				c-0.204,0.02-0.338-0.217-0.321-0.4c-0.01-1.058-0.006-2.117-0.002-3.173C631.152,175.374,631.352,174.946,631.742,174.793"/>
		</g>
		<g>
			<path fill="#4C4949" d="M641.025,172.741c0.619-0.132,1.268,0.453,1.135,1.09c-0.056,0.826-1.266,1.073-1.714,0.417
				C640,173.718,640.381,172.88,641.025,172.741"/>
			<path fill="#4C4949" d="M639.718,175.244c0.474-0.455,1.178-0.279,1.768-0.315c0.486-0.034,1.073,0.031,1.359,0.484
				c0.35,0.58,0.438,1.271,0.663,1.903c0.135,0.541,0.428,1.079,0.299,1.653c-0.251,0.086-0.563,0.074-0.686-0.201
				c-0.281-0.765-0.475-1.558-0.738-2.328c-0.033-0.131-0.146-0.212-0.238-0.3c0.357,1.532,0.865,3.028,1.277,4.546
				c-0.377,0.001-0.753,0.005-1.129,0c-0.029,1.087,0.012,2.173-0.018,3.257c0.008,0.248-0.154,0.527-0.429,0.517
				c-0.269,0.021-0.468-0.25-0.437-0.501c-0.014-1.093,0.013-2.186-0.01-3.278c-0.065,0.002-0.197,0.005-0.264,0.008
				c-0.021,1.129,0.023,2.259-0.021,3.385c-0.037,0.509-0.8,0.496-0.849-0.001c-0.024-1.129,0.002-2.258-0.012-3.387
				c-0.379,0.004-0.758,0.003-1.136-0.003c0.358-1.493,0.773-2.971,1.126-4.463c-0.043,0.028-0.129,0.083-0.172,0.111
				c-0.279,0.799-0.451,1.637-0.726,2.438c-0.087,0.365-0.74,0.342-0.747-0.056c0.055-0.617,0.313-1.198,0.463-1.798
				C639.258,176.353,639.311,175.706,639.718,175.244"/>
		</g>
		<line fill="none" stroke="#4C4949" stroke-miterlimit="10" x1="637.119" y1="172.722" x2="637.119" y2="184.097"/>
	</g>
	<g>
		<g>
			<path fill="#4C4949" d="M633.245,46.822c0.685-0.216,1.44,0.571,1.129,1.238c-0.196,0.669-1.188,0.844-1.607,0.291
				C632.307,47.866,632.586,46.955,633.245,46.822"/>
			<path fill="#4C4949" d="M631.742,49.029c0.623-0.247,1.305-0.129,1.957-0.155c0.563,0.009,1.214-0.075,1.678,0.316
				c0.354,0.278,0.366,0.767,0.371,1.178c-0.006,0.903,0.006,1.808-0.004,2.713c0.01,0.201-0.074,0.514-0.325,0.504
				c-0.296,0.075-0.493-0.246-0.483-0.504c-0.005-0.88,0.001-1.757-0.001-2.632c-0.075,0-0.221,0.002-0.295,0.004
				c-0.013,2.515,0.007,5.03-0.01,7.545c0.064,0.602-0.993,0.74-1.043,0.117c-0.022-1.51-0.003-3.024-0.009-4.535h-0.247
				c0.001,1.318-0.004,2.635,0.002,3.956c0.003,0.284-0.023,0.577-0.132,0.848c-0.343,0.282-0.994,0.14-0.973-0.373
				c-0.021-2.516,0.005-5.031-0.014-7.547h-0.236c-0.014,0.833,0.003,1.669-0.005,2.503c0,0.273-0.135,0.7-0.486,0.619
				c-0.204,0.02-0.338-0.217-0.321-0.4c-0.01-1.058-0.006-2.117-0.002-3.173C631.152,49.61,631.352,49.182,631.742,49.029"/>
		</g>
		<g>
			<path fill="#4C4949" d="M641.025,46.977c0.619-0.132,1.268,0.453,1.135,1.09c-0.056,0.826-1.266,1.073-1.714,0.417
				C640,47.954,640.381,47.116,641.025,46.977"/>
			<path fill="#4C4949" d="M639.718,49.479c0.474-0.455,1.178-0.279,1.768-0.315c0.486-0.034,1.073,0.031,1.359,0.484
				c0.35,0.58,0.438,1.271,0.663,1.903c0.135,0.541,0.428,1.079,0.299,1.653c-0.251,0.086-0.563,0.074-0.686-0.201
				c-0.281-0.765-0.475-1.558-0.738-2.328c-0.033-0.131-0.146-0.212-0.238-0.3c0.357,1.532,0.865,3.028,1.277,4.546
				c-0.377,0.001-0.753,0.005-1.129,0c-0.029,1.087,0.012,2.173-0.018,3.257c0.008,0.248-0.154,0.527-0.429,0.517
				c-0.269,0.021-0.468-0.25-0.437-0.501c-0.014-1.093,0.013-2.186-0.01-3.278c-0.065,0.002-0.197,0.005-0.264,0.008
				c-0.021,1.129,0.023,2.259-0.021,3.385c-0.037,0.509-0.8,0.496-0.849-0.001c-0.024-1.129,0.002-2.258-0.012-3.387
				c-0.379,0.004-0.758,0.003-1.136-0.003c0.358-1.493,0.773-2.971,1.126-4.463c-0.043,0.028-0.129,0.083-0.172,0.111
				c-0.279,0.799-0.451,1.637-0.726,2.438c-0.087,0.365-0.74,0.342-0.747-0.056c0.055-0.617,0.313-1.198,0.463-1.798
				C639.258,50.589,639.311,49.942,639.718,49.479"/>
		</g>
		<line fill="none" stroke="#4C4949" stroke-miterlimit="10" x1="637.119" y1="46.958" x2="637.119" y2="58.333"/>
	</g>
</g>
<g id="图层_1">
	<polygon name="C区" fill="none" stroke="#595757" stroke-miterlimit="10" points="20.5,32 297.75,23.75 297.75,74.25 98.75,74.25 
		98.75,157.75 146,157.75 146,210 20.5,210 	"/>
	<polygon name="A区" fill="none" stroke="#595757" stroke-miterlimit="10" points="727.334,12 450.084,20 450.084,74.25 649.084,74.25 
		649.084,157.75 601.834,157.75 601.834,210 727.334,210 	"/>
	<path fill="none" stroke="#C61D1E" stroke-miterlimit="10" d="M278.5,58.833c0.334,0,19.25,0,19.25,0v-19H278.5V58.833z"/>
	<rect x="65" y="196.25" fill="none" stroke="#C61D1E" stroke-miterlimit="10" width="14.75" height="13.75"/>
	<rect x="79.75" y="196.25" fill="none" stroke="#C61D1E" stroke-miterlimit="10" width="13.75" height="13.75"/>
	<polygon fill="none" stroke="#C61D1E" stroke-miterlimit="10" points="278.5,39.833 297.75,39.833 297.75,23.75 278.5,24.323 	"/>
	<rect x="101.333" y="39.833" fill="none" stroke="#595757" stroke-miterlimit="10" width="18.333" height="28.167"/>
	<rect x="101.333" y="163.833" fill="none" stroke="#595757" stroke-miterlimit="10" width="18.333" height="28.167"/>
	<rect x="297.075" y="163.833" fill="none" stroke="#595757" stroke-miterlimit="10" width="18.334" height="28.167"/>
	<rect x="431.75" y="163.833" fill="none" stroke="#595757" stroke-miterlimit="10" width="18.334" height="28.167"/>
	<rect x="628.333" y="163.833" fill="none" stroke="#595757" stroke-miterlimit="10" width="18.334" height="28.167"/>
	<rect x="628.333" y="39.833" fill="none" stroke="#595757" stroke-miterlimit="10" width="18.334" height="28.167"/>
	<rect x="642.083" y="196.25" fill="none" stroke="#C61D1E" stroke-miterlimit="10" width="13.75" height="13.75"/>
	<rect x="655.833" y="196.25" fill="none" stroke="#C61D1E" stroke-miterlimit="10" width="13.75" height="13.75"/>
	<rect x="669.583" y="196.25" fill="none" stroke="#C61D1E" stroke-miterlimit="10" width="13.75" height="13.75"/>
	<rect x="628.333" y="196.25" fill="none" stroke="#C61D1E" stroke-miterlimit="10" width="13.75" height="13.75"/>
	<polygon name="B区" fill="none" stroke="#595757" stroke-miterlimit="10" points="231.333,159 229.771,197.667 515.771,197.667 517.333,159 
		431.75,159 431.75,113.667 418.333,113.667 492,74.25 474.667,74.25 400.75,113.667 291.75,113.667 250.083,74.25 237,74.25 
		278.5,113.333 267.583,113.333 267.583,147.917 280.833,147.917 280.833,158.25 	"/>
	<path fill="none" stroke="#595757" stroke-miterlimit="10" d="M438.167,113.667"/>
	<path fill="none" stroke="#595757" stroke-miterlimit="10" d="M400.75,113.667"/>
	<rect name="西湖春" x="479.333" y="163.833" fill="none" stroke="#C61D1E" stroke-miterlimit="10" width="30.667" height="28.167"/>
	<rect name="得胜令" x="237.667" y="163.833" fill="none" stroke="#C61D1E" stroke-miterlimit="10" width="30.667" height="28.167"/>
	<path name="五福" fill="none" stroke="#2A4592" stroke-miterlimit="10" d="M414,177.917c-1.5-5.167-25.969-31.198-29.125-33.917
		c-0.787-0.678-3.833-4.167-10.875-4.167l0,0h0l0,0l0,0c-7.042,0-10.087,3.488-10.875,4.167
		c-3.156,2.719-27.625,28.75-29.125,33.917c-1.696,5.842-1.667,12.583,2.333,16.583s8.667,8.167,13.167,8.167s18.25-5,24.5-5
		c5.875,0,20,5,24.5,5s9.167-4.167,13.167-8.167S415.696,183.759,414,177.917z"/>
	
		<ellipse transform="matrix(0.9971 -0.0759 0.0759 0.9971 -8.1411 27.5379)" fill="none" stroke="#2A4592" stroke-miterlimit="10" cx="358.438" cy="120.938" rx="11.188" ry="13.063"/>
	
		<ellipse transform="matrix(0.8502 -0.5265 0.5265 0.8502 -24.1871 199.548)" fill="none" stroke="#2A4592" stroke-miterlimit="10" cx="338.512" cy="142.271" rx="10.52" ry="12.283"/>
	
		<ellipse transform="matrix(-0.9971 -0.0759 0.0759 -0.9971 770.0985 271.1252)" fill="none" stroke="#2A4592" stroke-miterlimit="10" cx="390.198" cy="120.938" rx="11.188" ry="13.063"/>
	
		<ellipse transform="matrix(-0.8502 -0.5265 0.5265 -0.8502 683.8848 479.1631)" fill="none" stroke="#2A4592" stroke-miterlimit="10" cx="410.123" cy="142.271" rx="10.52" ry="12.282"/>
	<rect x="681.737" y="13.315" fill="none" stroke="#C61D1E" stroke-miterlimit="10" width="10.513" height="19.685"/>
</g>
</svg>
