<svg version="1.1" xmlns="http://www.w3.org/2000/svg" xmlns:xlink="http://www.w3.org/1999/xlink" x="0px" y="0px" width="240px"
	 height="450px" viewBox="0 0 240 450" style="enable-background:new 0 0 240 450;" xml:space="preserve">
<g id="&#x9888;_1_" style="opacity:0.6;enable-background:new    ;">
	<g id="&#x9888;">
		<g>
			<path data-part="neck" name="颈部" d="M115.337,95.819c-4.409-1.09-8.108-2.659-8.392-4.486c-0.191-1.229-0.29-3.388-0.337-5.785
				c-0.182,0.358-0.305,0.725-0.345,1.094l-2.493-4.689c-2.714,2.182-5.021,3.381-6.079,3.381c-1.238,0-4.182-1.632-7.496-4.576
				l-1.581,3c-0.29,3.568-1.159,7.197-3.354,8.743c-1.771,1.248-4.077,2.262-6.107,3.002c0.021,4.054,0.461,15.223,4.546,19.798
				c5,5.601,10.241,7.423,12.97,7.661c3.965,0.346,9.008-2.011,14.563-7.061c2.595-2.36,5.135-15.09,5.686-19.727
				C116.391,96.057,115.851,95.946,115.337,95.819z"/>
		</g>
	</g>
</g>
<g id="&#x80F8;_1_" style="opacity:0.6;enable-background:new    ;">
	<g id="&#x80F8;">
		<g>
			<path data-part="chest" name="胸部" d="M122.334,109.5c-0.869-4.824-2-13.9-2-13.9s-3.301-1.699-3.301-0.8c0,2.5-2.867,18.434-5.8,21.101
				c-5.555,5.05-10.598,7.406-14.563,7.061c-2.729-0.238-7.97-2.061-12.97-7.661c-5.036-5.64-4.534-21.3-4.534-21.3L76,94.833
				c0,0-0.167,4.167-1.667,13.667s-5.478,12-5.5,21.5c-0.014,5.763,6.017,11.641,6.566,13.5l0.8,8c0,0,6.8-0.5,20.3-1s23.4,1,23.4,1
				s0.2-5.748,1.702-7.699c0.85-1.104,2.203-3.246,4.564-8.234C130.666,126.066,124.289,120.36,122.334,109.5z"/>
		</g>
	</g>
</g>
<g id="tou_1_" style="opacity:0.6;enable-background:new    ;">
	<g id="tou">
		<g>
			<path data-part="head" name="头部" d="M128.99,69.333c0-5.782-2.615-23.034-2.538-23.461C127.9,37.881,126.271,11.339,97.6,10.2
				C74.702,9.29,68.255,29.519,67.955,41.975c-0.595,2.351-1.375,4.845-2.155,5.625c-1.6,1.601-1.8,2-1.8,2l1.8-0.199
				c-0.029-0.049,2.435,1.837-0.835,6.304c-2.18,2.979-3.314,3.446-3.314,3.446s2.394,1.104,4.963-1.323
				c-0.515,4.371-0.947,8.826-0.947,11.506c0,6.667,0,7.667,0,7.667l3-8c0,0-2,5.667,2.333,10s4.333,4.333,4.333,4.333L74,76
				c0,0,2.333,4.667,5.667,7C83,85.333,83,86,83,86l-0.333-5l4.651,5.217l2.877-5.46c3.313,2.944,6.257,4.576,7.496,4.576
				c1.058,0,3.364-1.199,6.079-3.381l2.493,4.689C106.579,83.723,111.99,81,111.99,81l-0.333,5c0,0,0-0.667,3.333-3
				c3.333-2.333,5.667-7,5.667-7l-1.333,7.333c0,0,0,0,4.333-4.333c4.334-4.333,2.334-10,2.334-10l3,8
				C128.99,77,128.99,76,128.99,69.333z"/>
		</g>
	</g>
</g>
<g id="&#x5973;&#x6027;&#x751F;&#x6B96;_1_" style="opacity:0.6;enable-background:new    ;">
	<g id="&#x5973;&#x6027;&#x751F;&#x6B96;">
		<g>
			<path data-part="reproduction" name="生殖" d="M133.93,202.041c-0.701-4.366-1.53-6.041-1.53-6.041s-11.819,5-33.891,4.5
				c-22.072-0.5-33.621-5.75-33.621-5.75s-0.353,2.215-1.571,8.451c-1.788,9.151-4.075,24.502-3.312,24.799
				c2.696,1.051,34.231,3.036,36.115,3.679c1.109,0.378,0.012-11.06,2.849-6.252c0.543,0.92,0.363,6.124,1.413,6.323
				c2.032,0.385,22.143-2.75,35.098-2.75C137.389,229,135.475,211.642,133.93,202.041z"/>
		</g>
	</g>
</g>
<g id="&#x8179;_1_" style="opacity:0.6;enable-background:new    ;">
	<g id="&#x8179;">
		<g>
			<path data-part="abdomen" name="腹部" d="M129.675,188.242c-1.529-6.824-3.798-12.32-8.228-20.742c-2.117-4.025-2.54-10.061-2.23-16.094
				c-2.452-0.321-11.295-1.329-22.717-0.906c-10.377,0.385-16.779,0.768-19.193,0.925c0.363,6.524-0.146,15.087-4.241,22.575
				c-0.645,1.179-1.21,2.343-1.74,3.495l-0.08,0.005c0,0-0.335,0.781-0.843,2.114c-1.156,2.815-2,5.483-2.602,7.873
				c-0.671,2.386-1.184,5.056-1.668,7.763c3.524,1.323,14.496,4.845,32.376,5.25c19.427,0.44,30.906-3.379,33.38-4.301
				C131.203,193.449,130.439,190.718,129.675,188.242z"/>
		</g>
	</g>
</g>
<g id="&#x4E0A;&#x80A2;_1_" style="opacity:0.6;enable-background:new    ;">
	<g id="&#x4E0A;&#x80A2;">
		<g>
			<path data-part="upperLimb" name="上肢" d="M56.6,113.355c-1.292,7.693-0.889,19.932-0.889,40.145c0,15-5.785,20-7.363,34.5
				c-1.576,14.484,0.52,18.992-4.088,33.154c-1.927,2.642-6.453,4.817-7.24,6.183c-0.978,1.695-3.225,6.59-5.439,8.909
				c-0.312,0.326-0.927,2.035,0.242,2.058c0.978,0.019,3.562-1.455,5.18-2.933c0,0-3.131,10.425-3.493,13.963
				c0,0-0.002,4.464,2.044,0.188l3.386-9.508c0,0,0.888-0.812-0.724,7.076c-0.271,2.653-2.139,9.623,1.501,5.496
				c0,0,2.845-8.666,3.116-11.319c0,0,0.079-0.135,0.181-0.229c0.099,0.001,0.204-0.002,0.307-0.004
				c0.155,0.228,0.24,0.977,0.037,2.959c0,0-1.883,10.541,0.598,9.878c0.888-0.812,1.702-8.771,2.861-12.236
				c0,0,0.978-1.695,0.525,2.728c-0.272,2.653,0.415,11.304,2.028,3.759c0.177-2.36,1.614-7.01,3.637-20.85
				c0.475-2.012,0.855-4.028,1.156-5.895c0.026-0.076,0.046-0.147,0.073-0.225c-0.011-0.009-0.022-0.019-0.033-0.027
				c0.176-1.11,0.326-2.167,0.452-3.126c1.052-8,12.622-39,13.147-55.5c0.306-9.602,2.438-18.445,4.168-24.183
				c-1.599-2.443-3.148-5.394-3.141-8.317c0.022-9.5,4-12,5.5-21.5c0.958-6.065,1.371-9.947,1.545-11.968
				c-1.741,0.456-3.668,0.872-5.829,1.282C64.197,98.926,58.933,99.467,56.6,113.355z M162.744,236.628
				c-2.125-2.395-4.184-7.363-5.096-9.092c-1.418-2.686-4.147-3.552-6.002-5.428c-2.048-2.073-3.166-5.075-3.345-6.365
				c-0.746-5.393-0.89-15.588-2.137-28.243c-1.577-16-3.682-20-5.259-24.5c-1.578-4.5-2.805-35-2.805-44.5
				c0-13.99-5.602-17.206-8.572-19c-1.84-1.111-5.329-1.815-9.025-2.562c0.348,2.697,1.164,8.869,1.83,12.562
				c1.955,10.86,8.332,16.566,3.832,26.066c-0.551,1.165-1.043,2.161-1.49,3.038c1.32,5.554,2.802,13.179,3.082,20.396
				c0.526,13.5,5.26,27,7.889,37c2.074,7.889,3.511,15.365,4.434,20.758c0.528,3.088,3.092,22.063,2.717,19.438
				s0.283,5.19,0.979,6.51c0.421,2.591,0.695,4.121,0.733,5.177c1.326,7.595,2.342-1.025,2.172-3.687
				c-0.004-0.046-0.004-0.08-0.007-0.124c0.173-0.017,0.353-3.039,0.542-3.072c0.217-0.037,0.418,2.895,0.613,2.812
				c0.706,3.882,1.174,9.316,1.873,10.002c2.453,0.749,0.975-9.85,0.975-9.85c-0.284-4.435,0.629-2.707,0.629-2.707
				c0.17,2.661,2.682,11.419,2.682,11.419c3.48,4.251,1.881-2.779,1.711-5.44c-1.31-7.938-0.453-7.097-0.453-7.097l3.021,9.619
				c1.882,4.343,2.051-0.118,2.051-0.118c-0.227-3.549-2.958-14.074-2.958-14.074c1.561,1.532,4.087,3.094,5.064,3.109
				C163.592,238.694,163.043,236.965,162.744,236.628z"/>
		</g>
	</g>
</g>
<g id="&#x4E0B;&#x80A2;_1_" style="opacity:0.6;enable-background:new    ;">
	<g id="&#x4E0B;&#x80A2;">
		<g>
			<path data-part="lowerLimb" name="下肢" d="M62.601,254.5c0.993,16.5,2.062,33.377,2.035,43C64.603,309,65.447,311,61.271,329
				c-4.176,18,3.415,58.5,2.318,66.5c-1.096,8-1.938,11.5-2.253,15c-0.016,0.181-0.012,0.382,0.004,0.594
				c-0.05-0.01-0.101-0.019-0.151-0.028c0.024,3.962-0.201,7.146-0.793,8.929c-0.969,1.946,0,8.757,0,8.757
				s-1.938,4.864-5.815,5.837c0,0-2.908,4.865,5.815,3.892c8.722-0.973,11.196,2.919,13.134,0.974
				c1.938-1.946,3.876-6.811,1.938-9.729c-1.938-2.919,1.32-5.838,1.32-7.783c0-1.755-0.733-3.723-1.753-9.044
				c-0.054-0.005-0.111-0.011-0.165-0.017c-0.101-0.562-0.214-1.169-0.357-1.88c-1.503-7.5,0.57-25.5,0.645-33
				c0.075-7.5,8.145-32,9.076-51.5s-0.271-22,1.952-37.5s5.48-26.667,7.256-40.5c0.618-4.812,1.36-11.423,1.962-16.961
				c-4.487-0.664-26.521-2.138-33.474-3.152C61.744,237.173,62.102,246.214,62.601,254.5z M141.143,434.588
				c-3.877-0.973-5.814-5.837-5.814-5.837s0.969-6.811,0-8.757c-0.592-1.782-0.818-4.967-0.793-8.929
				c-0.153,0.03-0.309,0.056-0.463,0.085c0.024-0.233,0.033-0.452,0.018-0.65c-0.281-3.5-1.087-7-2.104-15
				c-1.016-8,5.98-48.5,1.985-66.5c-3.996-18-4.112-20-3.049-32c0.848-9.57,1.808-26,2.966-42.5c0.552-7.869,1-16.871,1.083-25.496
				c-12.38,0.074-30.809,2.854-34.199,2.775c0.501,5.502,1.174,12.002,1.915,16.721c2.015,12.833,4.702,25,6.77,40.5
				s-0.159,18,0.576,37.5c0.735,19.5,10.561,44,10.56,51.5c0,7.5,1.892,25.5,0.313,33c-0.207,0.984-0.311,1.806-0.342,2.513
				c-0.954,4.836-1.629,6.746-1.629,8.428c0,1.945,3.258,4.864,1.32,7.783s0,7.783,1.938,9.729
				c1.938,1.945,4.412-1.946,13.135-0.974C144.05,439.453,141.143,434.588,141.143,434.588z"/>
		</g>
	</g>
</g>
</svg>
